# xmcd CD database file
#
# Track frame offsets:
#	150
#	12984
#	26410
#	37937
#	52114
#	66020
#	81243
#	94646
#	107260
#	118099
#	130763
#	145163
#	158450
#	172719
#	181990
#	192440
#	204400
#	216705
#	230365
#	245262
#	254631
#	268262
#	282342
#	294994
#	303414
#	315695
#
# Disc length: 4376 seconds
#
# Revision: 3
# Processed by: cddbd v1.5.2PL0 Copyright (c) Steve Scherf et al.
# Submitted via: CDex 1.51
#
DISCID=6f11161a
DTITLE=Various Artist - The Best Of Bob Dylan's Theme Time Radio Hour - Disc 1
DYEAR=2007
DGENRE=Blues
TTITLE0=The Carter Family - Keep On The Sunny Side
TTITLE1=Ruth Brown - Mama, He Treats Your Daughter Mean
TTITLE2=George Zimmerman and The Thrills - Ain't Got No Money To Pay For This Drink
TTITLE3=Sister Wynona Carr - The Ball Game
TTITLE4=The Ink Spots - Java Jive
TTITLE5=Bessie Smith - Send Me To The 'Lectric Chair
TTITLE6=Leroy Carr And Scrapper Blackwell - Papa's On The Housetop
TTITLE7=Big Joe Turner - Married Woman
TTITLE8=Eddie "Cleanhead" Vinson and His Orchestra - Alimony Blues
TTITLE9=John Brim - Ice Cream Man
TTITLE10=Duke Ellington and His Orchestra - Tulip or Turnip
TTITLE11=Chuck Berry - No Money Down
TTITLE12=Bing Crosby - Brother, Can You Spare A Dime
TTITLE13=Gene Vincent - Race With The Devil
TTITLE14=Chuck Berry - Brown Eyed Handsome Man
TTITLE15=Freddy Bell and the Bellboys - Hound Dog
TTITLE16=Little Walter - Last Night
TTITLE17=Luke Jones and His Orchestra - Disc Jockey Blues
TTITLE18=Blind Willie Johnson - John The Revelator
TTITLE19=Percy Mayfield - Louisiana
TTITLE20=Sonny Boy Williamson - Good Morning Little Schoolgirl
TTITLE21=Pee Wee Crayton - Telephone Is Ringing
TTITLE22=The Five Blind Boys Of Mississippi - Jesus Gave Me Water
TTITLE23=Sleepy LaBeef - All The Time
TTITLE24=Clarence "Gatemouth" Brown - Midnight Hour
TTITLE25=Al Dexter and His Troopers - Pistol Packin' Mama
EXTD=YEAR: 2007
EXTT0=
EXTT1=
EXTT2=
EXTT3=
EXTT4=
EXTT5=
EXTT6=
EXTT7=
EXTT8=
EXTT9=
EXTT10=
EXTT11=
EXTT12=
EXTT13=
EXTT14=
EXTT15=
EXTT16=
EXTT17=
EXTT18=
EXTT19=
EXTT20=
EXTT21=
EXTT22=
EXTT23=
EXTT24=
EXTT25=
PLAYORDER=
